<?xml version="1.0" encoding="UTF-8"?>
<svg width="48px" height="48px" viewBox="0 0 48 48" version="1.1" xmlns="http://www.w3.org/2000/svg" xmlns:xlink="http://www.w3.org/1999/xlink">
    <!-- Generator: Sketch 50.2 (55047) - http://www.bohemiancoding.com/sketch -->
    <title>ic_document</title>
    <desc>Created with Sketch.</desc>
    <defs></defs>
    <g id="Page-1" stroke="none" stroke-width="1" fill="none" fill-rule="evenodd">
        <path d="M16,1 C14.3431458,1 13,2.34314575 13,4 L13,44 C13,45.6568542 14.3431458,47 16,47 L44,47 C45.6568542,47 47,45.6568542 47,44 L47,9.65685425 C47,8.86120478 46.6839295,8.09814304 46.1213203,7.53553391 L40.4644661,1.87867966 C39.901857,1.31607052 39.1387952,1 38.3431458,1 L16,1 Z" id="Rectangle-5" stroke="#979797" stroke-width="2"></path>
        <polyline id="Line" stroke="#979797" stroke-width="2" stroke-linecap="square" points="39.5 1 39.5 9.5 47 9.5"></polyline>
        <path d="M20,16 L40,16" id="Line-2" stroke="#979797" stroke-width="2" stroke-linecap="square"></path>
        <path d="M20,24 L40,24" id="Line-2" stroke="#979797" stroke-width="2" stroke-linecap="square"></path>
        <rect id="Rectangle-2" stroke="#979797" stroke-width="2" fill="#979797" x="1" y="29" width="30" height="12"></rect>
    </g>
</svg>